<?xml version="1.0" encoding="iso-8859-1"?>
<!-- Generator: Adobe Illustrator 19.0.0, SVG Export Plug-In . SVG Version: 6.00 Build 0)  -->
<svg version="1.1" id="Capa_1" xmlns="http://www.w3.org/2000/svg" xmlns:xlink="http://www.w3.org/1999/xlink" x="0px" y="0px"
	 viewBox="0 0 512 512" style="enable-background:new 0 0 512 512;" xml:space="preserve">
<path style="fill:#FF5352;" d="M475.858,251.697c-3.192,4.066-6.666,7.981-10.401,11.736L256,473.704L46.542,263.433
	C-5.622,211.068-5.451,126.327,46.913,74.174c52.354-52.164,137.095-52.003,189.259,0.361L256,94.443l19.827-19.908
	c52.164-52.364,136.905-52.525,189.259-0.361C513.696,122.593,517.33,199.092,475.858,251.697z"/>
<path style="fill:#F23030;" d="M475.858,151.024v100.673c-3.192,4.066-6.666,7.981-10.401,11.736L357.426,371.886H256V151.024
	L475.858,151.024L475.858,151.024z"/>
<rect x="256" y="171.098" style="fill:#B0EF60;" width="199.78" height="180.706"/>
<path style="fill:#80CBC4;" d="M395.545,201.22H256v120.47h139.545c0-16.634,13.484-30.118,30.118-30.118v-60.235
	C409.029,231.338,395.545,217.854,395.545,201.22z"/>
<path style="fill:#B0EF60;" d="M256,233.345v56.219c29.94,0,54.212-12.585,54.212-28.11S285.941,233.345,256,233.345z"/>
<g>
	<path style="fill:#FFFFFF;" d="M170.132,61.483c-5.175-1.376-10.51-2.385-15.857-3.001l-1.722,14.959
		c4.624,0.532,9.236,1.404,13.708,2.594L170.132,61.483z"/>
	<path style="fill:#FFFFFF;" d="M106.461,63.305c-16.489,5.428-31.162,14.468-43.608,26.868l10.627,10.669
		c10.769-10.729,23.45-18.544,37.689-23.233L106.461,63.305z"/>
	<path style="fill:#FFFFFF;" d="M179.431,80.598c11.205,4.83,21.32,11.73,30.065,20.508l10.669-10.628
		c-10.102-10.141-21.802-18.117-34.773-23.708L179.431,80.598z"/>
	<path style="fill:#FFFFFF;" d="M138.591,72.842l-0.422-15.053c-5.379,0.151-10.777,0.691-16.045,1.604l2.573,14.837
		C129.257,73.439,133.931,72.972,138.591,72.842z"/>
	<path style="fill:#FFFFFF;" d="M41.363,217.84c5.354,10.937,12.482,20.912,21.185,29.647l10.669-10.627
		c-7.534-7.564-13.701-16.19-18.329-25.641L41.363,217.84z"/>
	<path style="fill:#FFFFFF;" d="M45.177,168.987v-0.151l-15.059-0.108v0.259c0,11.575,1.759,22.97,5.228,33.865l14.349-4.569
		C46.697,188.867,45.177,179.01,45.177,168.987z"/>
	
		<rect x="110.679" y="285.191" transform="matrix(-0.7085 0.7057 -0.7057 -0.7085 408.5343 416.6936)" style="fill:#FFFFFF;" width="15.059" height="15.059"/>
	
		<rect x="147.159" y="342.437" transform="matrix(0.7057 0.7085 -0.7085 0.7057 299.534 -21.1854)" style="fill:#FFFFFF;" width="56.219" height="15.059"/>
	
		<rect x="131.934" y="306.527" transform="matrix(-0.7085 0.7057 -0.7057 -0.7085 459.906 438.147)" style="fill:#FFFFFF;" width="15.059" height="15.059"/>
	
		<rect x="269.406" y="380.298" transform="matrix(0.7085 0.7057 -0.7057 0.7085 370.0563 -75.9249)" style="fill:#FFFFFF;" width="15.059" height="59.381"/>
	<path style="fill:#FFFFFF;" d="M449.147,90.172l-10.628,10.669c8.528,8.495,15.292,18.3,20.102,29.143l13.765-6.108
		C466.819,111.326,458.999,99.987,449.147,90.172z"/>
	<path style="fill:#FFFFFF;" d="M302.504,101.105c18.18-18.25,42.379-28.301,68.142-28.301V57.745
		c-29.796,0-57.785,11.624-78.811,32.733L302.504,101.105z"/>
	<rect x="355.388" y="253.922" style="fill:#FFFFFF;" width="15.059" height="15.059"/>
</g>
<path d="M511.999,168.709c-0.074-37.758-14.849-73.226-41.599-99.869c-26.68-26.583-62.096-41.213-99.752-41.213
	c-0.092,0-0.185,0-0.277,0c-37.759,0.072-73.23,14.844-99.878,41.595L256,83.773l-14.494-14.552
	c-26.648-26.75-62.119-41.522-99.878-41.594c-0.094,0-0.183,0-0.277,0c-37.653,0-73.074,14.631-99.751,41.212
	C14.849,95.483,0.076,130.951,0,168.709c-0.075,37.759,14.56,73.287,41.207,100.038L256,484.372l124.551-125.035h82.758V276.26
	l7.483-7.513C497.439,241.996,512.075,206.469,511.999,168.709z M448.25,344.278H263.529V329.22h139.545v-7.529
	c0-12.456,10.133-22.588,22.588-22.588h7.529v-75.294h-7.529c-12.456,0-22.588-10.133-22.588-22.588v-7.529H263.529v-15.059H448.25
	V344.278z M263.529,241.17c22.852,1.793,39.153,11.508,39.153,20.285c0,8.777-16.301,18.492-39.153,20.285V241.17z M263.529,296.834
	c12.845-0.862,24.808-3.912,34.27-8.818c12.859-6.668,19.942-16.101,19.942-26.561s-7.083-19.893-19.942-26.561
	c-9.463-4.906-21.425-7.956-34.27-8.818v-17.327h125.242c3.002,14.729,14.633,26.359,29.362,29.362V284.8
	c-14.729,3.002-26.359,14.633-29.362,29.362H263.529V296.834z M263.529,163.573v-21.584H248.47v238.933h15.059v-21.584h95.767
	L256,463.035L51.877,258.119c-23.809-23.9-36.885-55.642-36.818-89.38c0.066-33.736,13.266-65.425,37.168-89.231
	c23.838-23.751,55.481-36.822,89.125-36.822c0.082,0,0.166,0,0.248,0c33.737,0.064,65.428,13.263,89.237,37.163L256,105.113
	l25.161-25.264c23.809-23.9,55.502-37.099,89.238-37.163c0.084,0,0.164,0,0.248,0c33.641,0,65.288,13.072,89.126,36.823
	c23.901,23.805,37.101,55.494,37.167,89.23c0.064,32.197-11.849,62.571-33.631,86.053v-91.219L263.529,163.573L263.529,163.573z"/>
<g>
</g>
<g>
</g>
<g>
</g>
<g>
</g>
<g>
</g>
<g>
</g>
<g>
</g>
<g>
</g>
<g>
</g>
<g>
</g>
<g>
</g>
<g>
</g>
<g>
</g>
<g>
</g>
<g>
</g>
</svg>
